Coordinates
version=1
nRows=14
nColumns=24
inDegrees=yes

Units are S.I. units (second, meters, Newtons, ...)
Angles are in degrees.

endheader
time	pelvis_tilt	pelvis_list	pelvis_rotation	pelvis_tx	pelvis_ty	pelvis_tz	hip_flexion_r	hip_adduction_r	hip_rotation_r	knee_angle_r	ankle_angle_r	subtalar_angle_r	mtp_angle_r	hip_flexion_l	hip_adduction_l	hip_rotation_l	knee_angle_l	ankle_angle_l	subtalar_angle_l	mtp_angle_l	lumbar_extension	lumbar_bending	lumbar_rotation
      3.47500000	    -10.85951696	     -4.53977504	    -12.27368593	     -2.03800925	     -0.05263404	      0.51317173	     -3.46720878	      8.63250548	     18.00734364	    -23.49765023	      7.07541426	     14.04504622	      9.37437320	     42.49338291	    -10.46440712	     -3.14266983	    -16.93746217	     -1.22944677	     23.90328435	     16.43854194	      7.84189041	      7.46051363	     18.58508645
      3.48000000	    -10.85737135	     -4.35011713	    -12.32544926	     -2.02941665	     -0.05324750	      0.51263610	     -3.60661208	      8.21222639	     17.56426030	    -23.94310302	      6.04536793	     14.81704186	     10.94907623	     42.45604889	    -10.26098455	     -3.13903139	    -17.33723332	     -1.45518004	     23.66168255	     16.88483443	      8.02598119	      7.32004698	     18.68762692
      3.48500000	    -10.87064116	     -4.10282489	    -12.32585279	     -2.02059243	     -0.05396373	      0.51223904	     -3.70097029	      7.75681978	     17.05683195	    -24.51293868	      5.28340460	     15.70937017	     11.49193748	     42.46892557	    -10.02129699	     -3.34057774	    -17.89222934	     -1.47074305	     23.91384725	     17.22350009	      8.29059886	      7.07625232	     18.69262413
      3.49000000	    -10.86784671	     -3.85631622	    -12.36557351	     -2.01183315	     -0.05459883	      0.51167330	     -3.74558097	      7.26925039	     16.51989798	    -25.08462803	      4.11359565	     16.55737650	     13.16594385	     42.41963496	     -9.74247338	     -3.32280965	    -18.40245063	     -1.85293875	     23.64866731	     17.80891176	      8.50858017	      6.87469275	     18.80790715
      3.49500000	    -10.87494713	     -3.59016391	    -12.34865215	     -2.00293450	     -0.05528228	      0.51113723	     -3.76462039	      6.77542016	     15.96641451	    -25.70452075	      2.97278023	     17.42684642	     14.42034018	     42.42363162	     -9.43608605	     -3.45604054	    -19.04446309	     -2.15984773	     23.66281285	     18.30125900	      8.76791599	      6.62470393	     18.85492921
      3.50000000	    -10.87074671	     -3.34933117	    -12.35081530	     -1.99410240	     -0.05598659	      0.51055179	     -3.72473421	      6.29692033	     15.36744723	    -26.45854480	      1.86877130	     18.47887486	     15.37352443	     42.43252848	     -9.15254425	     -3.59042979	    -19.77576202	     -2.44711089	     23.66871241	     18.67662822	      8.98893546	      6.41179858	     18.84183905
      3.50500000	    -10.88605027	     -3.03128398	    -12.29382772	     -1.98507667	     -0.05667297	      0.50992162	     -3.64250898	      5.73904623	     14.72032055	    -27.16108681	      0.43055588	     19.29144460	     16.98112976	     42.42765425	     -8.72941588	     -3.52875974	    -20.45845177	     -2.92440784	     23.46499941	     19.17893037	      9.28773014	      6.10418273	     18.89200866
      3.51000000	    -10.89200000	     -2.76394638	    -12.24865865	     -1.97619955	     -0.05738188	      0.50925735	     -3.50499428	      5.23081257	     14.08027691	    -28.00488302	     -0.91837140	     20.31871861	     18.07452202	     42.46915910	     -8.37257848	     -3.63179412	    -21.27750279	     -3.31823978	     23.39768695	     19.49462754	      9.52895646	      5.85448650	     18.82874248
      3.51500000	    -10.92757279	     -2.39293733	    -12.11605949	     -1.96707589	     -0.05812422	      0.50860871	     -3.30373034	      4.62905196	     13.36685144	    -28.89030787	     -2.31705870	     21.24565432	     18.92695077	     42.52926822	     -7.86687305	     -3.67926009	    -22.08978152	     -3.68059708	     23.39709171	     19.72796763	      9.87963185	      5.46522244	     18.75106433
      3.52000000	    -10.92395989	     -2.09016939	    -12.04256984	     -1.95823579	     -0.05872496	      0.50783729	     -3.08760444	      4.07783663	     12.71380981	    -29.72527623	     -4.29698028	     21.85782737	     21.07978632	     42.52240811	     -7.38050665	     -3.45138391	    -22.84907528	     -4.35314151	     22.84927272	     20.07435666	     10.10312508	      5.17423293	     18.77795449
      3.52500000	    -10.95754601	     -1.75249841	    -11.95068556	     -1.94938528	     -0.05944083	      0.50710368	     -2.74922624	      3.49391487	     12.01442116	    -30.78235683	     -5.87876761	     22.86384194	     21.93485398	     42.60984186	     -6.90158318	     -3.49469220	    -23.73752697	     -4.73844460	     22.67424957	     20.15699051	     10.37854075	      4.84113669	     18.68207261
      3.53000000	    -10.99445608	     -1.37456630	    -11.80607850	     -1.94052038	     -0.06011443	      0.50629117	     -2.36655155	      2.86673593	     11.27889294	    -31.84255368	     -7.69231588	     23.65068848	     23.04873243	     42.68642956	     -6.30920766	     -3.35282379	    -24.58862675	     -5.21547930	     22.25773130	     20.15168300	     10.66830224	      4.45154196	     18.60698179
      3.53500000	    -10.97903234	     -0.99759602	    -11.65813660	     -1.93171079	     -0.06066119	      0.50558830	     -2.01572153	      2.25760825	     10.62722294	    -32.87577187	     -9.82713626	     24.04298778	     24.52570706	     42.69374432	     -5.71146827	     -3.21768725	    -25.42296361	     -5.66171643	     21.87736900	     20.17545308	     10.88688866	      4.02911849	     18.56379791
      3.54000000	    -11.02682185	     -0.56387724	    -11.49975249	     -1.92292311	     -0.06131238	      0.50484709	     -1.50398731	      1.58737637	      9.94420445	    -34.12368737	    -11.57766452	     24.75821547	     24.82609865	     42.78968809	     -5.06841307	     -3.16542449	    -26.29787576	     -5.97309776	     21.53871998	     20.02996061	     11.18520803	      3.56057434	     18.45315259
